<?xml version="1.0" encoding="UTF-8" standalone="no"?>
<svg
   xmlns:dc="http://purl.org/dc/elements/1.1/"
   xmlns:cc="http://creativecommons.org/ns#"
   xmlns:rdf="http://www.w3.org/1999/02/22-rdf-syntax-ns#"
   xmlns:svg="http://www.w3.org/2000/svg"
   xmlns="http://www.w3.org/2000/svg"
   xmlns:sodipodi="http://sodipodi.sourceforge.net/DTD/sodipodi-0.dtd"
   xmlns:inkscape="http://www.inkscape.org/namespaces/inkscape"
   version="1.1"
   id="svg2"
   viewBox="0 0 684.65827 329.18604"
   height="329.18604"
   width="684.65826"
   inkscape:version="0.48.5 r10040"
   sodipodi:docname="magpie_logo.svg"
   inkscape:export-filename="/home/schwd/Programs/magpie/doc/magpie_logo.png"
   inkscape:export-xdpi="90"
   inkscape:export-ydpi="90">
  <sodipodi:namedview
     pagecolor="#ffffff"
     bordercolor="#666666"
     borderopacity="1"
     objecttolerance="10"
     gridtolerance="10"
     guidetolerance="10"
     inkscape:pageopacity="0"
     inkscape:pageshadow="2"
     inkscape:window-width="1485"
     inkscape:window-height="1069"
     id="namedview113"
     showgrid="false"
     fit-margin-top="0"
     fit-margin-left="0"
     fit-margin-right="0"
     fit-margin-bottom="0"
     inkscape:zoom="1.35"
     inkscape:cx="289.69783"
     inkscape:cy="121.39196"
     inkscape:window-x="65"
     inkscape:window-y="24"
     inkscape:window-maximized="1"
     inkscape:current-layer="svg2" />
  <defs
     id="defs4" />
  <metadata
     id="metadata7">
    <rdf:RDF>
      <cc:Work
         rdf:about="">
        <dc:format>image/svg+xml</dc:format>
        <dc:type
           rdf:resource="http://purl.org/dc/dcmitype/StillImage" />
        <dc:title></dc:title>
      </cc:Work>
    </rdf:RDF>
  </metadata>
  <path
     style="fill:#ffffff;stroke:none;stroke-width:1px;stroke-linecap:butt;stroke-linejoin:miter;stroke-opacity:1"
     d="m 146.30225,201.5333 18.64952,17.36335 34.40514,18.97106 29.582,9.6463 42.44373,-0.32154 27.97427,-62.37943 -1.60771,-29.58199 -185.20901,-39.54984 2.89389,36.97749 z"
     id="path3178"
     inkscape:connector-curvature="0"
     transform="translate(-2.1172199e-6,0)" />
  <path
     inkscape:connector-curvature="0"
     style="fill:#666666"
     d="m 197.71048,300.06544 c -0.8665,-0.7987 -0.9863,-0.65993 -0.5344,0.61921 0.3204,0.90673 0.6295,2.12173 0.6869,2.7 0.057,0.57826 0.2979,0.29962 0.5344,-0.61921 0.2365,-0.91883 -0.073,-2.13383 -0.6869,-2.7 z"
     id="path5185" />
  <path
     inkscape:connector-curvature="0"
     style="fill:#666666"
     d="m 254.90858,240.08604 c -0.3059,-0.495 -1.1637,-0.9 -1.9062,-0.9 -0.7425,0 -1.0997,0.405 -0.7938,0.9 0.3059,0.495 1.1637,0.9 1.9062,0.9 0.7425,0 1.0997,-0.405 0.7938,-0.9 z"
     id="path5181" />
  <path
     inkscape:connector-curvature="0"
     style="fill:#666666"
     d="m 181.55858,305.44624 c 0,-2.02811 -1.9709,-3.00703 -6.9745,-3.4642 -8.5116,-0.7777 -7.4815,2.9623 1.1245,4.08277 5.2114,0.67851 5.85,0.61099 5.85,-0.61857 z"
     id="path5543" />
  <path
     inkscape:connector-curvature="0"
     style="fill:#666666"
     d="m 145.31488,303.44229 c -0.2991,-0.29906 -1.0754,-0.33103 -1.7251,-0.071 -0.7179,0.28729 -0.5047,0.50056 0.5438,0.54374 0.9487,0.0391 1.4803,-0.17364 1.1813,-0.4727 z"
     id="path5539" />
  <path
     inkscape:connector-curvature="0"
     style="fill:#666666"
     d="m 157.25858,302.21462 c -1.4825,-1.14083 -2.5544,-1.42821 -3.1425,-0.84251 -1.0955,1.09107 0.9904,2.58914 3.5925,2.58013 1.6453,-0.005 1.6066,-0.15504 -0.45,-1.73762 z"
     id="path5537" />
  <path
     inkscape:connector-curvature="0"
     style="fill:#837954"
     d="m 292.2448,298.81104 c -0.0212,-2.42672 -1.63309,-4.51103 -2.47954,-3.2063 -0.38132,0.58778 -1.82319,1.49827 -3.20416,2.02331 -3.37356,1.28263 -2.22311,2.75799 2.1506,2.75799 2.78323,0 3.54391,-0.3391 3.5331,-1.575 z"
     id="path5535" />
  <path
     inkscape:connector-curvature="0"
     style="fill:#666666"
     d="m 172.55858,297.68604 c 0,-0.495 -0.4289,-0.9 -0.9531,-0.9 -0.5242,0 -0.7028,0.405 -0.3969,0.9 0.3059,0.495 0.7348,0.9 0.9531,0.9 0.2183,0 0.3969,-0.405 0.3969,-0.9 z"
     id="path5533" />
  <path
     inkscape:connector-curvature="0"
     style="fill:#666666"
     d="m 190.10858,294.08604 c 0.3059,-0.495 -0.099,-0.9 -0.9,-0.9 -0.8009,0 -1.2059,0.405 -0.9,0.9 0.3059,0.495 0.7109,0.9 0.9,0.9 0.1891,0 0.5941,-0.405 0.9,-0.9 z"
     id="path5531" />
  <path
     inkscape:connector-curvature="0"
     style="fill:#666666"
     d="m 245.96688,235.68034 c -0.5977,-0.96714 2.0099,-2.11289 3.1729,-1.39411 0.4503,0.27833 0.8188,0.88714 0.8188,1.35293 0,1.07852 -3.3294,1.11288 -3.9917,0.0412 z"
     id="path5521" />
  <path
     inkscape:connector-curvature="0"
     style="fill:#666666"
     d="m 263.00858,241.88604 c 0.30593,-0.495 -0.30157,-0.9 -1.35,-0.9 -1.04843,0 -1.65593,0.405 -1.35,0.9 0.30593,0.495 0.91343,0.9 1.35,0.9 0.43657,0 1.04407,-0.405 1.35,-0.9 z"
     id="path5519" />
  <path
     inkscape:connector-curvature="0"
     style="fill:#7b8948"
     d="m 211.09808,324.61885 c -3.2613,-3.31682 -4.0919,-4.73506 -3.6848,-6.29197 0.8284,-3.16781 -1.843,-4.51203 -7.7872,-3.91846 -4.6623,0.46558 -4.8938,0.40112 -3.2705,-0.91064 0.9609,-0.77643 2.4796,-1.41168 3.375,-1.41168 0.8954,0 1.628,-0.405 1.628,-0.9 0,-0.495 -0.6547,-0.9 -1.455,-0.9 -1.0696,0 -1.3112,-0.53629 -0.9123,-2.025 0.2985,-1.11375 0.5483,-2.94896 0.555,-4.07825 0.02,-3.40063 2.4414,-3.34858 6.9307,0.149 2.2974,1.78984 4.718,3.25425 5.3793,3.25425 0.6613,0 1.2023,0.55791 1.2023,1.2398 0,0.68188 0.6075,1.74397 1.35,2.3602 0.7425,0.61622 1.35,2.09199 1.35,3.27949 0,1.43286 0.761,2.50585 2.2626,3.19 2.3393,1.06587 2.4014,1.78675 0.8184,9.50551 -0.6266,3.05514 -3.0059,2.27377 -7.7415,-2.54225 z"
     id="path5969" />
  <path
     inkscape:connector-curvature="0"
     style="fill:#7b8948"
     d="m 292.2448,298.81106 c -0.029,-3.31327 -1.2161,-3.87338 -4.72116,-2.22755 -4.62111,2.16986 -4.32702,3.80255 0.68494,3.80255 3.26239,0 4.04732,-0.30629 4.03622,-1.575 z"
     id="path5949" />
  <path
     inkscape:connector-curvature="0"
     style="fill:#7b8948"
     d="m 168.50858,282.38606 c 0.3059,-0.495 -0.2538,-0.9 -1.2438,-0.9 -0.99,0 -2.0503,0.405 -2.3562,0.9 -0.3059,0.495 0.2538,0.9 1.2438,0.9 0.99,0 2.0503,-0.405 2.3562,-0.9 z"
     id="path5947" />
  <path
     inkscape:connector-curvature="0"
     style="fill:#7b8948"
     d="m 213.46628,267.84159 c 2.8531,-1.29998 2.9623,-2.55553 0.2223,-2.55553 -2.0471,0 -4.23,1.48621 -4.23,2.88 0,1.00523 1.3247,0.89798 4.0077,-0.32447 z"
     id="path5945" />
  <path
     inkscape:connector-curvature="0"
     style="fill:#7b8948"
     d="m 303.80977,176.29806 c 0.4279,-3.01116 -0.99987,-4.1174 -3.57957,-2.77347 -3.03143,1.57926 -3.02714,1.56639 -1.19646,3.58927 2.10547,2.32652 4.38484,1.93718 4.77603,-0.8158 z"
     id="path5929" />
  <path
     inkscape:connector-curvature="0"
     style="fill:#7b8948"
     d="m 221.13688,150.11849 c 1.0873,-0.68753 0.9388,-0.98413 -0.8181,-1.63405 -1.1806,-0.43672 -3.1959,-0.59123 -4.4784,-0.34336 l -2.3318,0.4507 2.7,1.15654 c 3.2931,1.41059 3.2841,1.40992 4.9283,0.37017 z"
     id="path5927" />
  <path
     inkscape:connector-curvature="0"
     style="fill:#7b8948"
     d="m 179.75518,148.06106 c -0.01,-1.99584 -3.5277,-6.975 -4.9334,-6.975 -1.9791,0 -1.6809,1.50351 0.9936,5.01004 2.4264,3.1812 3.9457,3.93894 3.9398,1.96496 z"
     id="path5925" />
  <path
     inkscape:connector-curvature="0"
     style="fill:#7b8948"
     d="m 387.65858,146.49312 c 1.68843,-0.0464 1.91306,-0.24716 0.9,-0.80445 -1.98927,-1.09432 -15.9025,-2.88856 -29.25,-3.77206 -6.435,-0.42595 -15.9525,-1.59307 -21.15,-2.59361 -5.1975,-1.00054 -16.30526,-2.25218 -24.6839,-2.78142 -8.37864,-0.52926 -15.94576,-1.34325 -16.81583,-1.80889 -0.87006,-0.46566 -2.72231,-0.83376 -4.1161,-0.81801 -2.3199,0.0262 -2.39877,0.13135 -0.93272,1.24356 1.43883,1.09157 1.4542,1.27144 0.15139,1.77137 -1.89442,0.72697 -48.63984,0.51733 -52.15284,-0.23388 -3.163,-0.67637 -3.3258,-1.93743 -0.4401,-3.40944 1.899,-0.96869 1.7175,-1.09398 -2.351,-1.62216 -2.4249,-0.31482 -5.7389,-1.15867 -7.3644,-1.87523 -3.0151,-1.32909 -9.7042,-1.7415 -12.2709,-0.75655 -2.0891,0.80167 -1.7344,4.75588 0.6014,6.7045 1.1797,0.98416 1.5332,1.70182 0.8469,1.71926 -1.7729,0.0451 -0.3087,1.82995 1.5012,1.82995 2.5766,0 3.7677,1.75696 2.5374,3.74295 -0.8491,1.37076 -0.7914,1.88295 0.2895,2.56988 1.9136,1.2161 3.0207,0.64074 3.6164,-1.87956 0.5784,-2.44691 0.3191,-2.40066 15.1142,-2.6965 5.975,-0.11947 9.6455,0.1793 10.305,0.83883 0.7659,0.76586 0.2976,1.0244 -1.8556,1.0244 -1.584,0 -2.88,0.38664 -2.88,0.85922 0,1.05976 4.507,1.8295 9.9,1.6908 7.55038,-0.19418 109.32367,1.17365 109.62337,1.47334 0.16372,0.16372 4.42169,0.15094 9.46216,-0.0284 5.04045,-0.17934 10.17697,-0.35389 11.41447,-0.38789 z"
     id="path5923" />
  <path
     inkscape:connector-curvature="0"
     style="fill:#7b8948"
     d="m 301.98983,327.67124 c 0.64968,-0.25998 1.42594,-0.22801 1.725,0.071 0.29906,0.29906 -0.2325,0.51178 -1.18125,0.4727 -1.04845,-0.0432 -1.26171,-0.25645 -0.54375,-0.54374 z"
     id="path5899" />
  <path
     inkscape:connector-curvature="0"
     style="fill:#7b8948"
     d="m 301.03601,308.95697 c -3.48064,-1.87926 -4.58182,-3.62484 -1.80243,-2.85722 0.86625,0.23925 3.49875,0.69636 5.85,1.0158 2.65725,0.36102 4.275,1.03215 4.275,1.7735 0,1.97878 -4.71217,2.01723 -8.32257,0.0679 z"
     id="path5863" />
  <path
     inkscape:connector-curvature="0"
     style="fill:#7b8948"
     d="m 187.61368,309.03477 c -1.3723,-0.60782 -3.1618,-2.05712 -3.9768,-3.22065 -1.4198,-2.02716 -1.3814,-2.19554 0.92,-4.0306 1.3209,-1.05326 2.4017,-2.61859 2.4017,-3.47851 0,-1.38115 3.1739,-3.31891 5.4361,-3.31891 0.4504,0 0.5841,1.17423 0.297,2.6094 -0.4228,2.11423 -0.1624,2.72349 1.3725,3.21065 2.3085,0.73267 2.559,4.53061 0.4934,7.47969 -1.5535,2.21793 -3.2214,2.39783 -6.9439,0.74895 z"
     id="path5861" />
  <path
     inkscape:connector-curvature="0"
     style="fill:#666666"
     d="m 308.45858,303.38657 c -5.55483,-0.87493 -6.57018,-1.29029 -5.57842,-2.28205 1.03323,-1.03323 18.39825,-1.19589 22.90342,-0.21453 1.50441,0.32771 2.475,0.15815 2.475,-0.43238 0,-0.53434 0.6075,-0.97151 1.35,-0.97151 0.7425,0 1.35,0.75057 1.35,1.66793 0,1.42787 -0.99112,1.75173 -6.88579,2.25 -7.11169,0.60117 -11.71942,0.59601 -15.61421,-0.0175 z"
     id="path5853" />
  <path
     inkscape:connector-curvature="0"
     style="fill:#7b8948"
     d="m 176.26828,300.47209 c -1.6303,-1.03151 -0.4909,-2.78599 1.8094,-2.78599 1.2086,0 1.7159,0.50014 1.5219,1.50042 -0.3547,1.8291 -1.67,2.33668 -3.3313,1.28557 z"
     id="path5851" />
  <path
     inkscape:connector-curvature="0"
     style="fill:#7b8948"
     d="m 116.75858,295.25441 c 0,-2.11322 2.4497,-4.06906 4.3436,-3.46795 2.3594,0.74885 2.5356,1.92317 0.3814,2.54257 -0.8663,0.24906 -2.2838,0.74463 -3.15,1.10126 -0.8663,0.35661 -1.575,0.27747 -1.575,-0.17588 z"
     id="path5849" />
  <path
     inkscape:connector-curvature="0"
     style="fill:#7b8948"
     d="m 143.75858,291.3861 c 0,-0.495 1.4414,-0.9 3.2031,-0.9 1.9062,0 2.9779,0.36439 2.6469,0.9 -0.3059,0.495 -1.7473,0.9 -3.2031,0.9 -1.4558,0 -2.6469,-0.405 -2.6469,-0.9 z"
     id="path5847" />
  <path
     inkscape:connector-curvature="0"
     style="fill:#666666"
     d="m 211.09808,324.61885 c -3.2613,-3.31682 -4.0919,-4.73506 -3.6848,-6.29197 0.8284,-3.16781 -1.843,-4.51203 -7.7872,-3.91846 -4.6623,0.46558 -4.8938,0.40112 -3.2705,-0.91064 0.9609,-0.77643 2.4796,-1.41168 3.375,-1.41168 0.8954,0 1.628,-0.405 1.628,-0.9 0,-0.495 -0.6547,-0.9 -1.455,-0.9 -1.0696,0 -1.3112,-0.53629 -0.9123,-2.025 0.2985,-1.11375 0.5483,-2.94896 0.555,-4.07825 0.02,-3.40063 2.4414,-3.34858 6.9307,0.149 2.2974,1.78984 4.718,3.25425 5.3793,3.25425 0.6613,0 1.2023,0.55791 1.2023,1.2398 0,0.68188 0.6075,1.74397 1.35,2.3602 0.7425,0.61622 1.35,2.09199 1.35,3.27949 0,1.43286 0.761,2.50585 2.2626,3.19 2.3393,1.06587 2.4014,1.78675 0.8184,9.50551 -0.6266,3.05514 -3.0059,2.27377 -7.7415,-2.54225 z"
     id="path6131" />
  <path
     inkscape:connector-curvature="0"
     style="fill:#666666"
     d="m 301.56409,322.35312 c -1.06947,0.33174 -2.60601,1.61279 -3.41453,2.84676 -1.92227,2.93374 -2.94989,2.15846 -3.69117,-2.78475 -0.65886,-4.3936 -0.92202,-4.59847 -3.44914,-2.68527 -1.26567,0.9582 -2.15041,1.04509 -3.467,0.34047 -0.97223,-0.52033 -2.63559,-0.71907 -3.69637,-0.44168 -1.69138,0.44231 -7.38841,-1.55529 -11.3873,-3.9928 -0.7425,-0.45259 -2.75268,-1.45188 -4.46706,-2.22064 -1.71438,-0.76877 -3.86801,-2.07735 -4.78583,-2.90797 -2.39973,-2.17172 -7.59361,-2.18781 -8.15911,-0.0253 -0.3887,1.48634 -1.0082,1.61133 -5.2394,1.05705 -7.597,-0.99522 -12.127,-4.85294 -5.6986,-4.85294 4.4342,0 3.9169,-1.58097 -0.9153,-2.79774 -8.615,-2.16927 -4.3064,-3.7813 9.3039,-3.48099 11.43804,0.25238 10.74878,0.42978 12.24521,-3.15168 0.77744,-1.86068 3.03056,-4.32476 5.55488,-6.075 7.29238,-5.05618 9.36986,-7.07914 15.75693,-15.34343 6.47181,-8.37394 7.6295,-11.45116 4.30809,-11.45116 -1.27265,0 -1.73422,-0.42234 -1.4035,-1.2842 0.7057,-1.83902 -1.48612,-3.46989 -2.84162,-2.11439 -0.58223,0.58223 -1.05859,1.43919 -1.05859,1.90437 0,0.91609 -2.71317,3.21904 -3.84728,3.2656 -0.38349,0.0158 -1.07394,-0.96209 -1.53431,-2.17297 -0.61011,-1.60468 -1.76312,-2.36654 -4.25273,-2.81001 -1.87862,-0.33463 -4.92154,-1.43624 -6.76203,-2.44803 -3.05431,-1.67907 -3.78224,-1.74208 -8.34071,-0.72194 -2.7469,0.61473 -6.16474,0.86063 -7.59524,0.54644 -2.3805,-0.52284 -2.8775,-0.15451 -5.8651,4.34656 -3.6988,5.57244 -7.8175,7.78857 -14.4752,7.78857 -8.4518,0 -47.8387,12.75227 -53.245,17.23909 -2.2203,1.84271 0.3605,3.51222 4.5477,2.94191 l 3.7199,-0.50667 -2.2269,1.94558 c -1.7572,1.53526 -2.9322,1.83279 -5.5712,1.4108 -3.2846,-0.52522 -12.4519,0.90894 -12.4519,1.948 0,0.29126 0.6789,1.27976 1.5087,2.19669 1.113,1.22981 1.2445,1.93136 0.5015,2.67444 -1.2839,1.28383 -10.0766,1.31316 -12.4526,0.0415 -1.1238,-0.60142 -2.2956,-0.65513 -3.1061,-0.14235 -1.4453,0.91439 -18.7843,1.16563 -21.0279,0.30469 -0.783,-0.30042 -1.4236,-1.33127 -1.4236,-2.29074 0,-1.50526 -0.4307,-1.6637 -3.1405,-1.15533 -2.531,0.47482 -3.2611,0.27489 -3.7619,-1.03025 -0.369,-0.96157 -0.1799,-1.7666 0.4656,-1.98175 0.7225,-0.24083 0.8951,-1.38591 0.5145,-3.41423 -0.5127,-2.7331 -0.3149,-3.1498 1.8936,-3.98946 1.976,-0.75128 3.2143,-0.57536 6.2315,0.88525 2.071,1.00256 4.3702,1.82284 5.1093,1.82284 0.7391,0 2.13,0.59462 3.0909,1.32138 1.8218,1.37793 1.0853,1.79324 -2.528,1.42569 -2.0036,-0.20381 -2.0913,2.5113 -0.1058,3.27322 0.8081,0.31008 2.2733,0.0617 3.2561,-0.55214 1.2817,-0.8004 2.0623,-0.84057 2.7608,-0.14204 1.5244,1.52438 2.7083,1.18788 6.7503,-1.91871 2.3941,-1.84003 3.7636,-3.61059 3.7636,-4.86574 0,-1.54069 0.401,-1.86829 1.8296,-1.4947 2.5107,0.65658 5.744,-2.26241 4.357,-3.93357 -0.7373,-0.88846 -0.7399,-1.53519 -0.01,-2.41509 1.0384,-1.25119 2.7176,-1.84459 15.4231,-5.45037 4.2075,-1.19408 11.0925,-3.45001 15.3,-5.01318 4.2075,-1.56318 9.675,-3.47859 12.15,-4.25649 9.3243,-2.93065 12.5989,-4.59398 12.629,-6.41482 0.016,-0.96626 0.5238,-2.35284 1.1283,-3.0813 1.2462,-1.50156 0.5443,-6.63957 -1.0486,-7.67587 -0.5548,-0.36095 -3.2362,-1.51979 -5.9587,-2.57521 -11.0354,-4.27802 -19.8548,-8.35132 -23.5476,-10.87561 -2.1463,-1.4672 -6.5349,-4.21394 -9.7524,-6.10386 -6.7186,-3.94642 -18,-12.71481 -18,-13.99038 0,-1.86633 3.4208,-0.66769 9,3.15358 3.2175,2.20371 7.3609,5.03706 9.2077,6.29634 3.4538,2.35513 7.4525,4.03247 13.7423,5.76448 13.8933,3.82579 15.0091,4.32274 19.4117,8.64577 4.8064,4.71957 4.3585,4.59244 19.438,5.51737 l 10.0498,0.61641 2.3488,-2.53449 2.3489,-2.5345 4.934,1.55532 c 2.7137,0.85541 5.2763,1.3438 5.6945,1.0853 0.4183,-0.2585 2.00219,-9e-4 3.51982,0.57152 4.15819,1.56955 6.95446,0.0134 6.95446,-3.87007 0,-2.42017 0.50092,-3.27636 2.475,-4.23037 2.63255,-1.27223 3.2655,-3.30195 1.26864,-4.06821 -1.9976,-0.76656 -0.75346,-5.95526 1.56763,-6.53781 1.90039,-0.47697 2.5296,-1.32425 5.42519,-7.30531 0.76245,-1.5749 1.79741,-3.11756 2.29991,-3.42812 0.50249,-0.31055 0.91363,-1.57988 0.91363,-2.82071 0,-2.6102 1.50513,-5.75347 3.43717,-7.17813 0.8551,-0.63054 1.14551,-1.74624 0.7992,-3.0705 -0.29917,-1.14405 -0.17145,-2.77613 0.28385,-3.62685 0.59598,-1.11359 0.3294,-2.12141 -0.95193,-3.59879 -2.09568,-2.41635 -1.75553,-3.20161 0.79546,-1.83636 3.05942,1.63735 3.61014,1.13702 3.63467,-3.30208 0.0403,-7.29486 0.67557,-10.97303 2.18283,-12.63853 0.83697,-0.92483 1.24186,-2.40093 0.95718,-3.48954 -0.27136,-1.03767 0.14898,-3.12887 0.9341,-4.64711 2.00989,-3.88671 1.8895,-4.05781 -2.43778,-3.46469 -2.36422,0.32405 -5.24763,0.0374 -7.425,-0.73817 -1.95786,-0.69738 -4.86226,-1.28574 -6.45421,-1.30746 -1.59196,-0.0217 -4.22446,-0.6126 -5.85,-1.31305 -17.21282,-7.41701 -20.14322,-7.96516 -41.60272,-7.78203 -9.871,0.0842 -23.3686,-0.31993 -29.9947,-0.89814 l -12.0475,-1.05131 -3.8919,2.79497 c -2.2734,1.63259 -6.3507,3.36518 -9.8039,4.16604 -5.5048,1.27665 -6.4647,1.25043 -13.9382,-0.38067 -9.8541,-2.15069 -18.8837,-6.61956 -25.0032,-12.37442 -3.7731,-3.54819 -4.7486,-5.09808 -5.2878,-8.40089 -0.3637,-2.2275 -1.2101,-4.83768 -1.881,-5.80041 -0.7655,-1.09842 -1.0283,-2.94764 -0.7058,-4.96476 0.4821,-3.01464 0.3232,-3.28334 -2.5563,-4.32459 -4.549,-1.64494 -5.0326,-1.44637 -6.0961,2.50309 -1.3382,4.96975 -0.854,7.44844 5.4476,27.88667 3.0846,10.00412 5.8348,16.15822 9.8539,22.05 1.3507,1.98 3.3727,5.4225 4.4933,7.65 1.1207,2.2275 4.6424,8.02744 7.8259,12.88876 6.219,9.4965 7.2224,11.41124 5.98,11.41124 -1.6528,0 -10.8919,-7.62568 -17.1552,-14.15943 -5.6891,-5.93474 -6.6908,-6.63746 -7.9599,-5.58419 -1.2429,1.03156 -1.6693,0.91652 -2.9638,-0.79971 -1.6238,-2.15275 -5.847,-4.65667 -7.8539,-4.65667 -0.6765,0 -1.4669,-1.11375 -1.7564,-2.475 -0.2895,-1.36125 -1.0458,-3.4875 -1.6807,-4.725 -0.6348,-1.2375 -1.6865,-4.275 -2.3369,-6.75 -0.6505,-2.475 -1.8696,-5.5125 -2.7091,-6.75 -3.214,-4.73716 -8.963996,-26.18776 -8.974896,-33.48071 -0.011,-7.09673 -1.7861,-13.34351 -6.5355,-22.99429 -2.497,-5.07376 -4.8196,-9.22501 -5.1614,-9.22501 -0.7175,0 -11.6534,-16.14271 -13.8394,-20.42848 -8.2488,-16.1728 -16.2112,-19.84441 -51.42,-23.71077 -9.771001,-1.07297 -19.268701,-3.1772 -20.700001,-4.58615 -0.5964,-0.58708 0.09,-1.70204 2.0331,-3.30526 1.7245,-1.42246 2.9298,-3.24847 2.925,-4.43157 -0.017,-4.21831 13.932601,-10.1341 28.079201,-11.90794 10.5585,-1.32394 19.5757,-4.09892 26.5362,-8.16642 3.3539,-1.95988 6.339,-3.56341 6.6336,-3.56341 0.2946,0 3.7435,-1.82852 7.6643,-4.06337 16.6157,-9.47112 37.858596,-12.60509 54.810896,-8.08624 16.533,4.4071 27.1332,12.69064 41.7584,32.63225 10.74,14.64417 16.7398,17.42691 42.4093,19.66977 16.1866,1.4143 50.30965,10.49453 65.07749,17.31728 7.81084,3.60863 17.85333,9.96589 27.17251,17.20121 2.97,2.30587 9.855,7.22531 15.3,10.93206 8.19819,5.58105 11.83388,7.40159 21.15,10.59068 10.93615,3.74366 46.44119,20.0847 53.98183,24.8449 4.03058,2.54439 19.99806,6.81166 40.51817,10.82839 6.6825,1.30807 14.175,3.11396 16.65,4.01309 2.475,0.89913 8.55,2.10535 13.5,2.68048 12.60383,1.46442 52.46246,7.07434 61.65,8.67695 4.2075,0.73392 10.2825,1.70059 13.5,2.14813 5.11298,0.7112 37.5595,6.21544 69.28234,11.75306 5.68279,0.99201 11.75779,2.18289 13.5,2.64641 1.74221,0.46352 7.01516,1.29136 11.71766,1.83965 4.7025,0.5483 10.10509,1.39994 12.00577,1.89254 1.90067,0.49261 6.88628,1.45097 11.07913,2.12971 11.29596,1.82858 25.5151,9.37622 25.5151,13.54365 0,3.58267 -1.94588,4.13522 -16.38244,4.65186 -11.24003,0.40225 -14.37681,0.23603 -17.08613,-0.90538 -1.82522,-0.76894 -4.07291,-1.20081 -4.99488,-0.9597 -0.92196,0.2411 -3.79736,-0.39768 -6.38974,-1.41951 -2.98267,-1.17565 -6.77731,-1.85786 -10.33399,-1.85786 -3.0913,0 -7.83506,-0.61553 -10.54168,-1.36785 -20.32137,-5.64839 -21.90294,-5.94644 -25.81499,-4.86471 -2.08661,0.57697 -4.51661,0.77128 -5.4,0.43181 -3.37395,-1.29659 -16.61272,-3.19425 -18.67437,-2.67681 -1.1876,0.29807 -5.59984,-0.30505 -9.80499,-1.34025 -6.00505,-1.4783 -10.49007,-1.88219 -20.9007,-1.88219 -12.69255,0 -13.66841,-0.13366 -22.99889,-3.15 -10.21226,-3.3014 -12.90645,-3.73981 -13.8272,-2.25 -0.86929,1.40653 -4.46568,1.06463 -9.44465,-0.8979 -3.19184,-1.2581 -8.53851,-2.08401 -17.80832,-2.75087 -7.28587,-0.52414 -20.33453,-1.77219 -28.99703,-2.77346 -8.6625,-1.00127 -18.82133,-2.03902 -22.57518,-2.3061 l -6.82517,-0.4856 -4.4982,4.49819 c -2.47401,2.474 -5.44972,4.80019 -6.6127,5.16931 -1.16298,0.36912 -3.72199,1.83556 -5.68667,3.25877 -1.96468,1.42321 -4.17489,2.58766 -4.91157,2.58766 -0.73668,0 -4.21967,2.16671 -7.73996,4.81492 -6.04936,4.55075 -20.99869,12.48219 -28.90055,15.33333 l -3.6,1.29895 2.96015,0.64593 c 4.55823,0.99464 2.90708,2.60689 -3.18183,3.10687 -3.01417,0.2475 -5.66461,0.6525 -5.88986,0.9 -1.06947,1.17512 -3.33846,6.36843 -3.33846,7.64116 0,2.58979 -3.50925,8.37165 -6.27747,10.3428 -1.49503,1.06455 -2.98473,3.02241 -3.31044,4.35079 -0.32572,1.32839 -1.36713,3.42775 -2.31427,4.66525 -0.94713,1.2375 -3.35777,5.085 -5.35698,8.55 -3.72304,6.45275 -7.22408,10.17955 -11.99084,12.76407 -5.05615,2.74143 -9.62995,7.02493 -16.41409,15.37224 l -6.77519,8.33632 1.39767,4.71368 c 1.8544,6.25407 2.69847,14.79871 1.53301,15.51901 -0.88888,0.54936 -0.57981,12.75627 0.34642,13.6825 1.13471,1.13471 2.32013,-0.83472 1.46461,-2.43328 -1.24192,-2.32054 -1.19422,-2.47185 1.29267,-4.10133 2.0488,-1.34242 2.36371,-1.31442 4.725,0.42001 z"
     id="path6123" />
  <path
     inkscape:connector-curvature="0"
     style="fill:#6c6c52"
     d="m 221.13688,150.11849 c 1.0873,-0.68753 0.9388,-0.98413 -0.8181,-1.63405 -1.1806,-0.43672 -3.1959,-0.59123 -4.4784,-0.34336 l -2.3318,0.4507 2.7,1.15654 c 3.2931,1.41059 3.2841,1.40992 4.9283,0.37017 z"
     id="path6103" />
  <path
     inkscape:connector-curvature="0"
     style="fill:#6c6c52"
     d="m 301.98983,327.67126 c 0.64968,-0.25998 1.42594,-0.22801 1.725,0.071 0.29906,0.29906 -0.2325,0.51178 -1.18125,0.4727 -1.04845,-0.0432 -1.26171,-0.25645 -0.54375,-0.54375 z"
     id="path6077" />
  <path
     inkscape:connector-curvature="0"
     style="fill:#666666"
     d="m 301.03601,308.95697 c -3.48064,-1.87926 -4.58182,-3.62484 -1.80243,-2.85722 0.86625,0.23925 3.49875,0.69636 5.85,1.0158 2.65725,0.36102 4.275,1.03215 4.275,1.7735 0,1.97878 -4.71217,2.01723 -8.32257,0.0679 z"
     id="path6039" />
  <path
     inkscape:connector-curvature="0"
     style="fill:#666666"
     d="m 187.61368,309.03477 c -1.3723,-0.60782 -3.1618,-2.05712 -3.9768,-3.22065 -1.4198,-2.02716 -1.3814,-2.19554 0.92,-4.0306 1.3209,-1.05326 2.4017,-2.61859 2.4017,-3.47851 0,-1.38115 3.1739,-3.31891 5.4361,-3.31891 0.4504,0 0.5841,1.17423 0.297,2.6094 -0.4228,2.11423 -0.1624,2.72349 1.3725,3.21065 2.3085,0.73267 2.559,4.53061 0.4934,7.47969 -1.5535,2.21793 -3.2214,2.39783 -6.9439,0.74895 z"
     id="path6037" />
  <path
     inkscape:connector-curvature="0"
     style="fill:#666666"
     d="m 176.26828,300.47209 c -1.6303,-1.03151 -0.4909,-2.78599 1.8094,-2.78599 1.2086,0 1.7159,0.50014 1.5219,1.50042 -0.3547,1.8291 -1.67,2.33668 -3.3313,1.28557 z"
     id="path6027" />
  <path
     inkscape:connector-curvature="0"
     style="fill:#666666"
     d="m 116.75858,295.25441 c 0,-2.11322 2.4497,-4.06906 4.3436,-3.46795 2.3594,0.74885 2.5356,1.92317 0.3814,2.54257 -0.8663,0.24906 -2.2838,0.74463 -3.15,1.10126 -0.8663,0.35661 -1.575,0.27747 -1.575,-0.17588 z"
     id="path6025" />
  <path
     inkscape:connector-curvature="0"
     style="fill:#666666"
     d="m 143.75858,291.3861 c 0,-0.495 1.4414,-0.9 3.2031,-0.9 1.9062,0 2.9779,0.36439 2.6469,0.9 -0.3059,0.495 -1.7473,0.9 -3.2031,0.9 -1.4558,0 -2.6469,-0.405 -2.6469,-0.9 z"
     id="path6023" />
  <path
     inkscape:connector-curvature="0"
     style="fill:#1e221e"
     d="m 215.75858,328.35054 c 0,-1.56769 -6.6671,-12.20391 -10.538,-16.81153 -3.4976,-4.16329 -5.065,-8.45297 -3.0887,-8.45297 2.0754,0 8.986,7.56782 11.6018,12.70519 2.9415,5.77689 4.6002,13.39481 2.9166,13.39481 -0.4904,0 -0.8917,-0.37598 -0.8917,-0.8355 z"
     id="path6259" />
  <path
     inkscape:connector-curvature="0"
     style="fill:#1e221e"
     d="m 278.30858,315.50887 c -1.485,-0.48714 -7.155,-3.08715 -12.6,-5.7778 -5.445,-2.69066 -10.3799,-4.88151 -10.9664,-4.86857 -0.5865,0.013 -2.2065,-0.47644 -3.6,-1.08752 -2.3143,-1.01488 -1.8406,-1.15121 5.4728,-1.575 5.90596,-0.34223 8.16984,-0.8181 8.6296,-1.81394 2.71159,-5.87348 3.63678,-6.94895 8.13778,-9.45968 3.78502,-2.11134 6.43286,-4.72192 11.42996,-11.26912 6.49328,-8.50749 7.63872,-10.41977 10.71123,-17.88194 l 1.63082,-3.96074 -4.45348,-3.91886 c -2.44941,-2.15537 -5.27221,-4.13347 -6.2729,-4.39577 -1.00067,-0.2623 -3.43941,-0.89602 -5.41941,-1.40828 -7.42667,-1.9214 -8.09025,-2.23502 -8.40917,-3.97421 -0.17966,-0.97977 -0.93542,-2.46839 -1.67947,-3.30804 -1.21322,-1.36912 -1.15007,-1.81134 0.61202,-4.28598 1.45046,-2.03699 1.81132,-3.45819 1.37846,-5.42899 -0.46066,-2.09737 -0.13383,-3.10793 1.5246,-4.71403 1.16102,-1.1244 2.76549,-3.46186 3.56548,-5.19436 0.79999,-1.7325 3.12033,-6.48917 5.15631,-10.57038 2.03597,-4.0812 3.70177,-8.34931 3.70177,-9.4847 0,-1.13538 0.81167,-3.65638 1.80372,-5.60221 1.25773,-2.46697 1.63549,-4.43456 1.24798,-6.50016 -0.68922,-3.67388 0.78551,-5.64255 4.22683,-5.64255 1.65704,0 2.90563,-0.64929 3.54462,-1.84326 0.67081,-1.25342 1.53019,-1.67068 2.68562,-1.30396 1.71737,0.54507 4.73511,-1.69933 5.60052,-4.16528 0.35449,-1.01011 0.93815,-0.9481 3.17637,0.3375 4.20368,2.41452 5.37838,2.03518 6.05242,-1.9545 0.66433,-3.93206 2.80243,-5.40616 4.49132,-3.09648 0.83361,1.14004 1.91265,1.37353 4.44691,0.96228 l 3.34622,-0.54302 -0.6164,2.87835 c -0.33902,1.5831 -0.67033,2.87837 -0.73627,2.87837 -1.35409,0 -3.7942,2.51175 -4.02375,4.14191 -0.16715,1.18695 -1.10886,3.02661 -2.09269,4.08814 -2.09198,2.25719 -1.56099,2.73179 3.2135,2.8723 4.05831,0.11944 5.86043,-1.59507 5.90446,-5.6174 0.0158,-1.43827 0.96969,-3.86827 2.11988,-5.4 1.15019,-1.53172 2.35247,-3.4937 2.67175,-4.35995 0.81352,-2.20723 1.97231,-1.96073 3.17323,0.675 1.28673,2.82407 2.01564,2.8188 4.69566,-0.0339 1.59048,-1.69299 2.17866,-3.40582 2.27317,-6.61958 0.15585,-5.30026 0.7484,-6.37087 3.17489,-5.73633 1.56651,0.40965 1.82771,0.13525 1.57411,-1.65371 -0.22176,-1.56418 -1.01494,-2.26824 -2.92982,-2.60064 -1.44417,-0.25069 -2.79417,-0.96204 -3.00001,-1.58079 -0.46427,-1.39563 3.53942,-1.46809 11.02576,-0.19956 8.35083,1.415 34.13785,3.21384 43.65,3.0449 12.63605,-0.22441 12.11247,-0.13891 10.76835,-1.75848 -1.70524,-2.05468 0.0331,-3.28147 5.13703,-3.62523 2.7724,-0.18673 5.08662,0.19244 6.39504,1.04778 1.12773,0.73722 2.50255,1.06098 3.05514,0.71946 1.86942,-1.15537 16.05183,-0.39627 18.75986,1.00411 1.42735,0.73811 4.53906,1.34648 6.91489,1.35193 6.93181,0.0159 10.91326,0.97912 13.10451,3.17036 2.04906,2.04908 10.56725,4.10293 10.56311,2.54692 -0.003,-0.94027 -9.79622,-5.76947 -11.69793,-5.76815 -0.7425,5.2e-4 -2.3625,-0.8036 -3.6,-1.78692 l -2.25,-1.78785 3.6,0.46603 c 1.98,0.25631 8.46,1.08737 14.4,1.84679 5.94,0.75942 15.0525,2.00261 20.25,2.76265 5.1975,0.76003 15.12,2.15347 22.05,3.0965 6.93,0.94305 15.6375,2.27537 19.35,2.96071 3.7125,0.68534 8.00108,1.06049 9.53017,0.83367 1.5291,-0.22682 5.56648,0.4482 8.97197,1.50005 3.40548,1.05184 8.6344,2.26962 11.61982,2.70616 2.98542,0.43655 9.88304,1.43377 15.32804,2.21607 5.445,0.7823 14.355,2.22509 19.8,3.20621 23.43477,4.22265 35.44528,6.23287 40.5,6.77854 2.97,0.32062 8.41252,1.36132 12.09451,2.31265 3.68197,0.95134 8.02072,1.7297 9.64168,1.7297 6.25525,0 20.56381,8.06734 20.56381,11.59413 0,1.659 -0.71758,1.75935 -17.6713,2.47097 -10.3824,0.43579 -11.69935,0.30993 -15.14358,-1.44719 -2.83296,-1.44526 -4.07179,-1.6759 -4.97507,-0.92625 -0.89428,0.74219 -2.08857,0.61954 -4.65641,-0.47819 -1.8995,-0.81202 -7.53131,-1.81565 -12.51512,-2.23029 -4.98381,-0.41463 -11.46381,-1.55773 -14.4,-2.54023 -9.27869,-3.10479 -16.41066,-4.16886 -19.77877,-2.95094 -2.07904,0.7518 -4.12434,0.815 -6.86091,0.21201 -10.87382,-2.396 -14.67968,-2.92352 -17.40446,-2.41235 -1.85285,0.3476 -5.4776,-0.13192 -9.57033,-1.26607 -5.32485,-1.47562 -9.28725,-1.82562 -20.6678,-1.82562 -10.60862,0 -15.05087,-0.35234 -18.01809,-1.42913 -2.16599,-0.78603 -7.12798,-2.37372 -11.02663,-3.52822 -6.76633,-2.00369 -9.56153,-2.10494 -9.56153,-0.34636 0,1.30211 -2.81477,0.93021 -8.0662,-1.06573 -3.64941,-1.38705 -9.27766,-2.19676 -21.84203,-3.14231 -9.30921,-0.70059 -22.08191,-1.90358 -28.3838,-2.67333 -22.73292,-2.7767 -24.58261,-2.7745 -29.37675,0.035 -2.33518,1.36851 -4.86374,3.43132 -5.61902,4.58402 -0.75527,1.15269 -2.22029,2.36466 -3.2556,2.69325 -1.03529,0.3286 -3.48984,1.76188 -5.45452,3.1851 -1.96468,1.42325 -4.09467,2.5877 -4.73332,2.5877 -0.63864,0 -3.8519,2.06233 -7.14058,4.58296 -3.28868,2.52064 -8.25616,5.58986 -11.03887,6.82051 -2.78271,1.23064 -6.08993,2.96577 -7.34939,3.85583 -1.25946,0.89006 -5.21714,2.57959 -8.79485,3.75449 -4.66883,1.53323 -6.5106,2.56926 -6.525,3.67043 -0.0134,1.02479 -1.0328,1.7242 -3.07009,2.1064 -3.20893,0.602 -3.75727,1.4587 -7.23491,11.30336 -1.54228,4.36597 -5.79215,8.48898 -11.60971,11.26319 -3.39541,1.61915 -4.16248,3.23836 -4.21284,8.89283 -0.0629,7.068 -4.63544,13.9861 -11.24252,17.00965 -3.57183,1.63456 -11.26426,9.20522 -18.32161,18.03159 -6.08228,7.6069 -5.91066,6.95435 -4.03939,15.35876 0.51831,2.32789 0.41527,2.5465 -0.7476,1.58624 -1.10756,-0.9146 -1.72485,-0.71343 -3.45196,1.125 -1.15676,1.23132 -2.59052,2.23876 -3.18612,2.23876 -0.5956,0 -1.5871,0.6075 -2.20332,1.35 -1.71679,2.0686 0.36573,3.90426 4.79509,4.22668 l 3.75491,0.27332 -0.23712,4.46341 c -0.4191,7.88859 -5.33965,11.00851 -13.26288,8.40942 z"
     id="path6239" />
  <path
     inkscape:connector-curvature="0"
     style="fill:#1e221e"
     d="m 312.05858,215.78604 c 0,-0.495 -0.4289,-0.9 -0.95312,-0.9 -0.52421,0 -0.70281,0.405 -0.39688,0.9 0.30593,0.495 0.73483,0.9 0.95312,0.9 0.21828,0 0.39688,-0.405 0.39688,-0.9 z"
     id="path6237" />
  <path
     inkscape:connector-curvature="0"
     style="fill:#1e221e"
     d="m 306.47858,200.03353 c 0,-3.42059 -0.9446,-4.4591 -4.12373,-4.53373 -1.39874,-0.0328 -2.21511,0.59477 -2.55972,1.96786 -0.61578,2.45344 0.12974,3.79521 2.68055,4.8244 3.3724,1.36068 4.0029,1.00494 4.0029,-2.25853 z"
     id="path6235" />
  <path
     inkscape:connector-curvature="0"
     style="fill:#1e221e"
     d="m 322.14306,199.53494 c -0.23651,-1.61142 -1.30951,-3.34455 -2.59013,-4.18365 -1.20249,-0.7879 -2.78355,-2.58741 -3.51346,-3.9989 -0.72991,-1.41149 -1.92421,-2.56635 -2.654,-2.56635 -1.59879,0 -1.60749,0.15391 -0.27399,4.84558 1.23261,4.33664 3.78997,7.50533 6.48394,8.03391 1.05224,0.20646 2.14676,0.43054 2.43229,0.49795 0.28551,0.0674 0.33743,-1.11544 0.11535,-2.62854 z"
     id="path6233" />
  <path
     inkscape:connector-curvature="0"
     style="fill:#1e221e"
     d="m 296.35704,194.10762 c 0.92747,-1.50068 -1.15848,-3.22156 -2.40004,-1.98 -1.03853,1.03853 -0.38855,2.95842 1.00158,2.95842 0.43657,0 1.06588,-0.44029 1.39846,-0.97842 z"
     id="path6231" />
  <path
     inkscape:connector-curvature="0"
     style="fill:#1e221e"
     d="m 362.82045,168.98791 c -0.47747,-0.47747 -2.22596,-1.13969 -3.88553,-1.47161 -2.36383,-0.47276 -2.92707,-0.33021 -2.60034,0.65813 0.2294,0.69389 1.80239,1.48267 3.49554,1.75287 3.48457,0.55608 4.24645,0.31673 2.99033,-0.93939 z"
     id="path6229" />
  <path
     inkscape:connector-curvature="0"
     style="fill:#1e221e"
     d="m 493.40858,163.7448 c -0.99,-0.18341 -2.18475,-0.69917 -2.655,-1.14612 -0.47025,-0.44696 -1.43109,-0.81264 -2.1352,-0.81264 -2.0034,0 0.44267,2.52087 2.83056,2.91711 2.49046,0.41327 4.37873,-0.51019 1.95964,-0.95835 z"
     id="path6227" />
  <path
     inkscape:connector-curvature="0"
     style="fill:#1e221e"
     d="m 483.95858,163.58604 c -1.77827,-1.14921 -4.76025,-1.14921 -4.05,0 0.30593,0.495 1.64608,0.8938 2.97812,0.88622 1.89428,-0.0108 2.12779,-0.20384 1.07188,-0.88622 z"
     id="path6225" />
  <path
     inkscape:connector-curvature="0"
     style="fill:#1e221e"
     d="m 456.50858,160.88604 c 0.32855,-0.53161 -0.6628,-0.89436 -2.42188,-0.88622 -2.25394,0.0104 -2.64984,0.22593 -1.62812,0.88622 1.74954,1.13063 3.35123,1.13063 4.05,0 z"
     id="path6223" />
  <path
     inkscape:connector-curvature="0"
     style="fill:#1e221e"
     d="m 187.71098,307.46579 c -3.103,-1.13652 -3.8696,-3.19315 -1.6358,-4.38865 0.9623,-0.51499 2.3485,-2.03992 3.0805,-3.38873 0.9706,-1.78854 1.3406,-2.02081 1.3669,-0.85807 0.02,0.87686 1.0543,2.05827 2.2989,2.62535 1.7262,0.78651 2.127,1.47568 1.6899,2.9057 -1.2538,4.10131 -2.5113,4.67535 -6.8004,3.1044 z"
     id="path6219" />
  <path
     inkscape:connector-curvature="0"
     style="fill:#1e221e"
     d="m 147.06638,299.79385 c -0.7779,-0.7779 1.0985,-3.00781 2.531,-3.00781 0.6152,0 2.1428,-0.80576 3.3948,-1.79057 1.9369,-1.52357 2.9025,-1.67359 6.4754,-1.0061 3.8402,0.71743 8.591,3.84384 8.591,5.65355 0,1.14924 -8.8096,0.87728 -10.7455,-0.33172 -1.3341,-0.83313 -2.2516,-0.83313 -4.0802,0 -2.606,1.18737 -5.2545,1.39466 -6.1665,0.48265 z"
     id="path6217" />
  <path
     inkscape:connector-curvature="0"
     style="fill:#1e221e"
     d="m 141.05858,298.68233 c 0,-1.01164 2.341,-1.95529 3.062,-1.23428 1.0834,1.08339 0.4923,2.03799 -1.262,2.03799 -0.99,0 -1.8,-0.36167 -1.8,-0.80371 z"
     id="path6215" />
  <path
     inkscape:connector-curvature="0"
     style="fill:#1e221e"
     d="m 163.55858,291.83604 c -0.911,-1.09764 -0.8688,-1.35 0.2254,-1.35 0.7402,0 3.1185,-0.76893 5.2852,-1.70874 4.7006,-2.03891 11.1602,-3.44475 8.6644,-1.88569 -0.8663,0.54113 -1.575,1.75471 -1.575,2.69685 0,3.03755 -10.4041,4.89344 -12.6,2.24758 z"
     id="path6213" />
  <path
     inkscape:connector-curvature="0"
     style="fill:#1e221e"
     d="m 186.05858,281.15588 c 0,-1.8284 29.2007,-12.22356 34.425,-12.25496 6.0225,-0.0362 0.9851,2.64316 -10.125,5.3855 -2.2275,0.54982 -8.3525,2.59716 -13.6111,4.54964 -10.8203,4.01749 -10.6889,3.98898 -10.6889,2.31982 z"
     id="path6211" />
  <path
     inkscape:connector-curvature="0"
     style="fill:#1e221e"
     d="m 227.92868,269.01553 c -1.7205,-0.72185 -1.7104,-0.78403 0.3012,-1.8606 2.0206,-1.0814 5.2047,-6.99291 4.27,-7.92761 -0.2553,-0.25529 0.3278,-2.0165 1.2957,-3.9138 1.4538,-2.84973 1.5782,-3.84837 0.7152,-5.74236 -0.5745,-1.261 -0.8312,-2.50609 -0.5704,-2.76687 0.2607,-0.26078 2.5954,-0.72538 5.188,-1.03244 2.8757,-0.34059 5.3271,-1.21643 6.2863,-2.24599 1.4829,-1.59176 1.8691,-1.61037 6.7943,-0.32752 2.8721,0.74809 5.36501,1.50311 5.53974,1.67783 0.73916,0.73917 -2.62014,5.93898 -5.75364,8.90602 -1.8626,1.76363 -4.4919,5.26129 -5.843,7.77255 -1.4617,2.717 -3.5769,5.14532 -5.2234,5.99675 -3.2907,1.70169 -10.4989,2.51347 -13,1.46404 z"
     id="path6209" />
  <path
     inkscape:connector-curvature="0"
     style="fill:#1e221e"
     d="m 220.93358,252.16677 c -0.3713,-0.3744 -0.675,-1.50423 -0.675,-2.51073 0,-1.32461 0.2719,-1.55814 0.9844,-0.8456 0.5414,0.54142 0.8452,1.67126 0.675,2.51074 -0.1702,0.83948 -0.6132,1.22 -0.9844,0.84559 z"
     id="path6207" />
  <path
     inkscape:connector-curvature="0"
     style="fill:#1e221e"
     d="m 135.28318,191.02662 c -4.991,-5.20267 -9.7691,-9.45517 -10.6179,-9.45 -0.8489,0.005 -2.0217,-0.90183 -2.6064,-2.01558 -0.5847,-1.11375 -1.6115,-2.34888 -2.2817,-2.74472 -0.6702,-0.39585 -1.2186,-1.27602 -1.2186,-1.95595 0,-0.67993 -1.0773,-2.51647 -2.3939,-4.08121 -1.3166,-1.56475 -3.5269,-5.24082 -4.9118,-8.16906 -1.3848,-2.92824 -2.911,-5.32406 -3.3914,-5.32406 -0.4805,0 -1.7396,-2.3148 -2.7982,-5.144 -3.3222,-8.87946 -5.408496,-19.24913 -5.936396,-29.506 -0.2803,-5.445 -0.9359,-10.78267 -1.457,-11.86149 -0.6863,-1.42076 -0.6229,-3.06078 0.2299,-5.94908 0.9715,-3.29037 1.4889,-3.90616 2.958596,-3.5218 1.6609,0.43433 1.7462,0.12558 1.2617,-4.56887 -0.4767,-4.61822 -0.3394,-5.15278 1.6594,-6.46247 2.3179,-1.51871 3.0798,-4.62452 0.9324,-3.80048 -0.6856,0.26311 -2.384,-0.70873 -3.774,-2.15965 -1.711296,-1.78615 -2.822696,-2.34279 -3.441696,-1.72375 -0.6191,0.61903 -0.2722,1.364 1.0741,2.30696 2.465996,1.72728 2.522896,2.74088 0.1883,3.3514 -1.8535,0.4847 -2.4275,3.21148 -0.9965,4.73422 0.947,1.0078 0.2283,6.705 -0.8459,6.705 -0.4059,0 -0.8662,-1.08252 -1.0228,-2.40559 -0.4118,-3.478 -2.4365,-3.71084 -3.1072,-0.35732 -0.4477,2.23853 -0.803,2.58873 -1.793,1.76715 -0.679,-0.56355 -1.2346,-2.02546 -1.2346,-3.24869 0,-1.48245 -0.6129,-2.38432 -1.8379,-2.70469 -1.6196,-0.42353 -1.7678,-0.94805 -1.2478,-4.41574 0.6211,-4.14168 -0.7301,-5.58688 -1.7858,-1.91012 -0.5764,2.00713 -0.5934,2.00912 -1.9356,0.225 -0.7447,-0.99 -4.4047,-6.4575 -8.1333,-12.15 -7.0937,-10.83022 -12.2817,-16.41655 -17.1257,-18.44051 -5.1428,-2.14881 -22.2012,-5.73626 -29.5839,-6.22162 -8.7759,-0.57694 -22.474701,-2.92016 -25.012701,-4.27847 -1.8302,-0.97946 -1.8323,-1.01788 -0.1245,-2.26751 5.5812,-4.08392 20.519901,-5.33176 41.598501,-3.47472 6.9227,0.6099 8.5231,1.03908 9.302,2.49455 0.6721,1.25582 1.4972,1.59642 2.8888,1.19248 1.0713,-0.31098 3.4666,-0.69733 5.3229,-0.85854 3.1388,-0.27259 3.375,-0.1231 3.375,2.13615 0,1.73757 -0.6608,2.73033 -2.3207,3.48665 -1.2764,0.58155 -2.1541,1.55781 -1.9504,2.16946 0.7882,2.36747 3.4522,1.55252 6.8091,-2.08305 3.0395,-3.29172 3.7185,-3.64148 5.3619,-2.76194 3.0336,1.6235 4.2737,1.22215 2.4501,-0.79293 -0.8959,-0.99 -2.1109,-1.8 -2.7,-1.8 -0.5891,0 -1.8041,-0.81 -2.7,-1.8 -0.8959,-0.99 -2.2952,-1.8 -3.1095,-1.8 -0.8143,0 -1.8653,-0.36921 -2.3355,-0.82047 -0.4703,-0.45126 -2.6775,-1.18162 -4.905,-1.62301 -3.0769,-0.60971 -3.9865,-1.1694 -3.7855,-2.32952 0.1542,-0.8908 -0.3145,-1.527 -1.125,-1.527 -0.7642,0 -1.3895,0.6075 -1.3895,1.35 0,1.03705 -1.0954,1.33454 -4.725,1.2833 -6.8793,-0.0971 -12.627,-1.12809 -13.0279,-2.33682 -0.1922,-0.57945 0.7873,-2.30477 2.1767,-3.83407 1.8908,-2.08112 4.395,-3.31819 9.9555,-4.91795 4.0862,-1.17558 8.763,-3.1546 10.3929,-4.39783 4.0234,-3.06878 25.6465,-13.4649 26.6789,-12.82687 0.4551,0.28127 2.981,-0.45511 5.6132,-1.6364 8.955,-4.01892 17.280996,-5.26508 27.535096,-4.12118 21.7297,2.42405 33.7572,10.18099 50.38,32.4918 11.463,15.38528 17.4814,18.90555 35.9031,21.00024 13.4075,1.52455 24.6235,3.41727 28.2266,4.76329 1.2325,0.46044 4.1361,1.1154 6.4526,1.45547 2.3164,0.34008 5.2153,1.40777 6.4419,2.37267 1.2267,0.96489 3.1789,1.75916 4.3384,1.76504 1.1594,0.006 4.3355,0.65199 7.058,1.43581 2.7225,0.78383 6.165,1.61918 7.65,1.85635 5.4601,0.87201 20.08096,8.09612 30.15,14.89701 12.04159,8.1332 20.91955,14.49618 25.26889,18.11067 l 3.08111,2.56052 -3.09094,-0.54621 c -1.70002,-0.30042 -3.79729,-1.18544 -4.66059,-1.96672 -0.86331,-0.78128 -3.27457,-1.80358 -5.35837,-2.27178 -2.08381,-0.46819 -4.80099,-1.64751 -6.03819,-2.6207 -3.02859,-2.38227 -9.1125,-4.09235 -19.30206,-5.42547 -7.288,-0.9535 -9.36525,-0.90778 -14.83022,0.32636 -7.34926,1.65967 -10.15353,1.15997 -12.85972,-2.29153 -2.86391,-3.65264 -5.05681,-3.16283 -5.72951,1.27972 -0.7633,5.0405 -7.7552,4.33248 -21.954,-2.22311 -1.113,-0.51388 -2.253,-0.70503 -2.5332,-0.42479 -0.5486,0.54855 -12.7683,-5.60424 -16.7857,-8.4518 -1.3433,-0.95218 -4.7858,-2.49066 -7.65,-3.41883 -8.2627,-2.67767 -11.0575,-2.68681 -11.0575,-0.0362 0,3.01879 -4.8404,2.41374 -7.2,-0.9 -2.0796,-2.92059 -4.8809,-3.55078 -5.7474,-1.29295 -0.3062,0.7981 -0.9976,1.12412 -1.5976,0.75332 -0.5818,-0.35954 -3.9259,-0.78233 -7.4314,-0.93954 -3.5055,-0.15721 -6.7786,-0.35328 -7.2736,-0.43571 -2.9371,-0.48911 -17.7998,2.34423 -21.6,4.1177 -2.475,1.15503 -6.9946,4.47316 -10.0436,7.37362 -4.8067,4.5726 -5.7936,6.09366 -7.425,11.44337 -2.356,7.72624 -2.4618,12.15525 -0.3064,12.82903 0.8662,0.2708 2.5875,1.01364 3.825,1.65076 2.7884,1.4356 13.757,2.63268 21.7564,2.37444 5.603,-0.18087 5.9749,-0.0733 5.5368,1.60182 -0.3293,1.25958 -1.5285,1.97464 -4.0163,2.39494 -2.3203,0.39201 -4.0374,1.34793 -4.9654,2.76422 -0.9556,1.45856 -2.2657,2.16499 -4.015,2.16499 -1.6685,0 -2.5965,0.46653 -2.5965,1.30527 0,0.71791 -0.6644,1.67708 -1.4764,2.13149 -0.812,0.45442 -1.1893,1.29068 -0.8384,1.85836 0.7708,1.24724 5.4324,3.26449 9.6107,4.15893 4.9051,1.05004 5.4377,1.91665 3.3512,5.45301 -2.0687,3.50612 -1.7915,3.4176 -6.558,2.09429 -3.2283,-0.89629 -3.7114,-0.8027 -5.1729,1.00211 -1.0021,1.23756 -2.1619,1.77971 -3.0655,1.43299 -1.1904,-0.45681 -1.2483,-0.80493 -0.32,-1.92349 0.9337,-1.12501 0.7929,-1.72823 -0.7986,-3.42236 -1.0627,-1.13114 -1.9321,-2.55101 -1.9321,-3.15527 0,-0.60427 -0.6659,-2.11501 -1.4799,-3.35721 -1.4223,-2.17072 -1.3839,-2.3587 0.9875,-4.83387 3.0693,-3.2037 2.5773,-5.25455 -2.1611,-9.0074 -4.0022,-3.16984 -6.3465,-3.52355 -6.3465,-0.9576 0,0.97859 -1.005,2.43772 -2.2332,3.24253 -2.3256,1.52375 -4.0548,6.09385 -4.0594,10.72822 0,1.485 1.6162,8.4802 3.5949,15.5449 1.9788,7.06471 3.5977,13.4836 3.5977,14.26421 0,0.78062 2.3063,5.3279 5.1251,10.10509 2.8188,4.77719 6.2461,10.77597 7.6163,13.33063 1.3701,2.55466 4.3289,7.48558 6.5749,10.9576 2.246,3.47201 4.0837,6.54559 4.0837,6.83017 0,1.91511 -3.2702,-0.70155 -11.1754,-8.94202 z"
     id="path6205" />
  <path
     inkscape:connector-curvature="0"
     style="fill:#1e221e"
     d="m 328.80487,169.36243 c -0.94718,-2.4683 -0.61041,-3.07639 1.70371,-3.07639 1.2375,0 2.25,-0.405 2.25,-0.9 0,-1.13615 3.31653,-1.18678 4.01215,-0.0613 0.2851,0.46131 -0.60225,0.96756 -1.9719,1.125 -1.78743,0.20546 -2.57142,0.85776 -2.77785,2.31125 -0.33026,2.32545 -2.40561,2.71353 -3.21611,0.60139 z"
     id="path6199" />
  <path
     inkscape:connector-curvature="0"
     style="fill:#1e221e"
     d="m 305.37781,166.41992 c -0.9665,-1.86903 -1.05757,-2.83554 -0.33523,-3.55788 2.20605,-2.20605 6.23605,2.46047 4.22133,4.88807 -1.51875,1.82998 -2.4096,1.52505 -3.8861,-1.33019 z"
     id="path6197" />
  <path
     inkscape:connector-curvature="0"
     style="fill:#1e221e"
     d="m 279.65858,159.53604 c -2.38343,-1.99131 -4.71973,-3.15 -6.35139,-3.15 -3.22401,0 -12.72551,-3.48565 -12.12964,-4.44978 0.24217,-0.39186 4.60073,-0.92042 9.68567,-1.17459 6.34017,-0.31691 10.20881,-0.96271 12.31141,-2.05516 2.85474,-1.48325 5.98698,-1.55295 45.45,-1.01141 44.63919,0.61255 59.93395,1.25646 59.93395,2.52316 0,0.42228 -4.15125,0.77404 -9.225,0.7817 -5.07375,0.008 -15.3,0.45529 -22.725,0.99475 -7.425,0.53945 -15.93,1.08082 -18.9,1.20303 -2.97,0.12222 -9.57037,0.54693 -14.66748,0.9438 -7.78306,0.606 -9.41589,0.99889 -10.19402,2.45285 -0.58132,1.08619 -1.46505,1.52461 -2.37181,1.17666 -0.79489,-0.30503 -3.96634,-0.74683 -7.04768,-0.98179 -4.99301,-0.38071 -5.89157,-0.18388 -8.26056,1.80949 -5.91069,4.97351 -10.35585,5.24217 -15.50845,0.93729 z"
     id="path6195" />
  <path
     inkscape:connector-curvature="0"
     style="fill:#1e221e"
     d="m 322.13858,161.60604 c -1.46717,-1.46717 -1.3589,-3.12039 0.24464,-3.73573 1.85193,-0.71065 6.77536,1.14779 6.77536,2.55748 0,2.20956 -5.12799,3.07025 -7.02,1.17825 z"
     id="path6193" />
  <path
     inkscape:connector-curvature="0"
     style="fill:#1e221e"
     d="m 302.15858,160.36104 c 0,-1.58934 1.93748,-1.31255 2.49375,0.35625 0.19594,0.5878 -0.285,1.06875 -1.06875,1.06875 -0.78375,0 -1.425,-0.64125 -1.425,-1.425 z"
     id="path6191" />
  <path
     inkscape:connector-curvature="0"
     style="fill:#1e221e"
     d="m 398.00858,144.70595 c -10.17728,-1.41724 -30.45866,-3.58625 -41.86882,-4.47772 -6.69284,-0.5229 -14.38784,-1.36011 -17.1,-1.86045 -2.71215,-0.50034 -7.22881,-1.33067 -10.03702,-1.84519 -2.80821,-0.5145 -5.59155,-1.5207 -6.1852,-2.236 -0.91699,-1.10491 -0.39467,-1.30055 3.47225,-1.30055 2.50339,0 5.58174,0.39165 6.84078,0.87034 3.95277,1.50284 20.6259,2.21522 22.93413,0.97989 1.95352,-1.04549 1.97066,-1.14757 0.3932,-2.34305 -1.20788,-0.91539 -1.30696,-1.2576 -0.37019,-1.27856 0.70352,-0.0158 2.01977,0.64164 2.925,1.46087 1.5315,1.38598 1.76024,1.38598 3.29174,0 0.90522,-0.81923 3.13272,-1.48949 4.95,-1.48949 3.42636,0 4.05235,-0.69178 2.25363,-2.4905 -1.80984,-1.80984 1.84111,-2.46221 4.61371,-0.8244 1.35442,0.80007 5.46052,2.52133 9.12468,3.82502 3.66416,1.30367 7.26961,2.98557 8.01211,3.73754 1.20622,1.2216 0.7639,1.31812 -4.15289,0.90619 -6.42157,-0.53799 -9.81747,0.69203 -4.33484,1.57012 12.86295,2.0601 31.84796,5.67749 35.03773,6.67606 3.27879,1.02644 -12.59954,1.12258 -19.8,0.11988 z"
     id="path6181" />
  <path
     inkscape:connector-curvature="0"
     style="fill:#1e221e"
     d="m 175.48358,137.37913 c -2.5315,-0.73094 -4.1779,-2.61846 -2.25,-2.57943 2.0516,0.0415 8.2932,2.41815 7.7575,2.95383 -0.7763,0.77631 -1.7519,0.70998 -5.5075,-0.3744 z"
     id="path6179" />
  <path
     inkscape:connector-curvature="0"
     style="fill:#1e221e"
     d="m 352.55858,117.68604 c -0.7425,-0.47985 -0.945,-0.87244 -0.45,-0.87244 0.495,0 1.5075,0.39259 2.25,0.87244 0.7425,0.47984 0.945,0.87243 0.45,0.87243 -0.495,0 -1.5075,-0.39259 -2.25,-0.87243 z"
     id="path6171" />
  <path
     inkscape:connector-curvature="0"
     style="fill:#868f4f"
     d="m 200.47618,111.79773 c 6.1676,-0.76357 13.8505,-1.95303 17.0731,-2.64324 3.2226,-0.69021 8.0903,-1.49991 10.817,-1.79931 5.5202,-0.60613 6.6089,-1.10184 7.4547,-3.39414 0.4444,-1.20442 1.6109,-1.57501 4.9578,-1.57501 4.5498,0 16.3798,-3.23527 16.3798,-4.47957 0,-0.39156 -5.3663,-0.91215 -11.925,-1.15686 -9.1755,-0.34235 -12.9787,-0.87074 -16.4951,-2.29172 -5.1697,-2.0891 -13.408,-6.89596 -18.9871,-11.07852 -3.4162,-2.56111 -4.0205,-2.72491 -6.6593,-1.80502 -4.0626,1.41625 -10.4723,1.25952 -16.0338,-0.39208 -2.5999,-0.77207 -5.2046,-1.23265 -5.7884,-1.02349 -0.5837,0.20916 -2.1593,-0.1739 -3.5013,-0.85124 -1.342,-0.67734 -5.392,-1.85528 -9,-2.61764 -5.419,-1.14501 -7.9689,-1.21197 -14.66,-0.38495 -9.6691,1.1951 -15.1815,3.66663 -21.9079,9.82251 -3.8003,3.47793 -5.2622,5.65139 -6.975,10.3703 -3.291,9.06655 -3.1163,9.72915 3.0079,11.40789 11.1402,3.05369 13.4898,3.29774 27.675,2.87461 10.1882,-0.3039 16.7691,-0.0448 22.5,0.88587 10.6291,1.72612 9.2543,1.71792 22.0676,0.13161 z"
     id="path5171" />
  <path
     inkscape:connector-curvature="0"
     style="fill:#837954"
     d="m 200.47618,111.79773 c 6.1676,-0.76357 13.8505,-1.95303 17.0731,-2.64324 3.2226,-0.69021 8.0903,-1.49991 10.817,-1.79931 5.5202,-0.60613 6.6089,-1.10184 7.4547,-3.39414 0.4444,-1.20442 1.6109,-1.57501 4.9578,-1.57501 4.7423,0 16.3798,-3.25671 16.3798,-4.58381 0,-0.4489 -4.1513,-0.82609 -9.225,-0.83819 -5.0737,-0.0121 -11.0475,-0.43708 -13.275,-0.94439 -5.6256,-1.28123 -17.4913,-7.19706 -23.3457,-11.63942 -3.5374,-2.68425 -5.4101,-3.55477 -6.75,-3.13781 -6.8231,2.12328 -13.3302,1.40419 -29.3043,-3.23838 -8.9527,-2.60194 -15.6187,-2.97498 -24.6465,-1.37925 -8.8343,1.56153 -10.1727,2.24558 -18.3255,9.36579 -4.9381,4.31276 -5.8412,5.61996 -7.425,10.74751 -2.7991,9.06269 -2.6631,9.51325 3.372,11.16756 11.1402,3.05369 13.4898,3.29774 27.675,2.87461 10.1882,-0.3039 16.7691,-0.0448 22.5,0.88587 10.6291,1.72612 9.2543,1.71792 22.0676,0.13161 z"
     id="path5503" />
  <path
     inkscape:connector-curvature="0"
     style="fill:#7b8948"
     d="m 311.15858,126.28917 c 0,-0.94993 -1.7272,-1.34902 -2.24093,-0.51779 -0.31091,0.50307 0.0661,0.91468 0.83781,0.91468 0.77172,0 1.40312,-0.1786 1.40312,-0.39689 z"
     id="path5915" />
  <path
     inkscape:connector-curvature="0"
     style="fill:#ffffff"
     d="m 207.65858,111.34287 c 6.1875,-1.00251 14.49,-2.25368 18.45,-2.78038 7.9438,-1.05657 10.35,-1.97677 10.35,-3.9581 0,-0.95488 1.0748,-1.31833 3.8984,-1.31833 3.2353,0 8.0701,-1.13725 17.57796,-4.13469 0.95973,-0.30256 0.99355,-0.66713 0.15557,-1.67684 -0.80715,-0.97257 -3.48593,-1.29679 -10.88023,-1.3169 -5.3952,-0.0147 -10.9327,-0.29352 -12.3056,-0.61964 -4.7457,-1.12735 -17.0649,-7.47459 -22.6372,-11.66342 -5.5599,-4.17945 -5.6236,-4.20053 -10.726,-3.54921 -8.4906,1.08382 -13.5363,0.72501 -16.7885,-1.19389 -2.1215,-1.25167 -3.2875,-1.49231 -3.9621,-0.81768 -0.6729,0.67288 -1.3005,0.67379 -2.1192,0.003 -0.6397,-0.52408 -4.6173,-1.59669 -8.839,-2.38358 -6.2876,-1.17193 -9.1363,-1.25694 -15.75,-0.46995 -10.2486,1.21952 -15.6073,3.67718 -22.6221,10.37523 -4.8078,4.59074 -5.7983,6.12053 -7.425,11.46726 -2.3264,7.64741 -2.4162,10.48061 -0.3321,10.48061 0.8497,0 3.1785,0.56191 5.175,1.2487 7.8635,2.70493 14.4062,3.34626 23.1536,2.26958 8.5056,-1.04692 21.4671,-0.60486 26.3765,0.8996 4.629,1.41854 17.5229,1.03897 29.25,-0.86107 z"
     id="path5913" />
  <path
     inkscape:connector-curvature="0"
     style="fill:#6c6c52"
     d="m 311.15858,126.28917 c 0,-0.94993 -1.7272,-1.34902 -2.24093,-0.51779 -0.31091,0.50307 0.0661,0.91468 0.83781,0.91468 0.77172,0 1.40312,-0.1786 1.40312,-0.39689 z"
     id="path6091" />
  <path
     inkscape:connector-curvature="0"
     style="fill:#1e221e"
     d="m 109.55858,91.63915 c 0,-1.06187 -1.7553,-2.1978 -2.4,-1.55312 -0.6447,0.64469 0.4912,2.4 1.5531,2.4 0.4658,0 0.8469,-0.38109 0.8469,-0.84688 z"
     id="path6203" />
  <path
     inkscape:connector-curvature="0"
     style="fill:#1e221e"
     d="m 184.70858,134.78604 c 0.3059,-0.495 2.0511,-0.87154 3.8781,-0.83674 2.6772,0.0509 2.9726,0.21336 1.5219,0.83674 -2.5273,1.086 -6.0712,1.086 -5.4,0 z"
     id="path6177" />
  <path
     inkscape:connector-curvature="0"
     style="fill:#1e221e"
     d="m 245.04698,131.24823 c -0.2848,-0.4608 -0.2074,-0.98478 0.1719,-1.16441 1.4043,-0.66499 12.8397,0.38507 12.8397,1.17901 0,1.08411 -12.3411,1.07026 -13.0116,-0.0146 z"
     id="path6173" />
  <path
     inkscape:connector-curvature="0"
     style="fill:#1e221e"
     d="m 217.38978,117.07124 c 0.6497,-0.25999 1.426,-0.22802 1.7251,0.071 0.299,0.29906 -0.2326,0.51177 -1.1813,0.47269 -1.0485,-0.0432 -1.2617,-0.25644 -0.5438,-0.54374 z"
     id="path4614" />
  <path
     inkscape:connector-curvature="0"
     style="fill:#868f4f"
     d="m 344.29852,143.16958 c -0.36185,-1.87892 -6.19003,-3.46228 -17.83994,-4.84661 -6.07536,-0.72191 -18.83928,-0.79238 -44.1,-0.24348 -33.6928,0.73212 -35.1268,0.83035 -27.45,1.88033 18.26647,2.49835 46.85214,4.30992 71.84099,4.5528 16.29918,0.15843 17.81576,0.0424 17.54895,-1.34304 z"
     id="path5179" />
  <path
     inkscape:connector-curvature="0"
     style="fill:#ffffff"
     d="m 346.50934,143.74775 c -0.82563,-3.1572 -16.15182,-6.05624 -32.65076,-6.17608 -9.6543,-0.0701 -47.4909,0.3809 -63,0.75099 -8.416,0.20081 -3.132,1.51717 10.8,2.69048 7.1775,0.60447 17.1,1.5225 22.05,2.04006 10.25468,1.07222 30.77249,1.99923 50.07892,2.26264 12.64902,0.17257 13.16054,0.10952 12.72184,-1.56809 z"
     id="path5511" />
  <path
     inkscape:connector-curvature="0"
     style="fill:#1e221e"
     d="m 401.37797,155.72659 c -0.62183,-0.21686 -0.90168,-0.7647 -0.62188,-1.21742 0.65516,-1.06008 4.00249,-1.07632 4.00249,-0.0194 0,1.03772 -1.92847,1.74327 -3.38061,1.23684 z"
     id="path6189" />
  <path
     inkscape:connector-curvature="0"
     style="fill:#1e221e"
     d="m 448.27106,154.10284 c -1.55738,-1.17993 -1.50937,-1.26136 0.7594,-1.28818 2.69863,-0.0319 4.10987,1.31718 2.16043,2.06525 -0.69155,0.26538 -2.00547,-0.0843 -2.91983,-0.77707 z"
     id="path6187" />
  <path
     inkscape:connector-curvature="0"
     style="fill:#1e221e"
     d="m 436.67157,151.82616 c -0.32627,-0.52793 -0.40815,-1.14497 -0.18192,-1.37119 0.62772,-0.62773 3.36893,0.61504 3.36893,1.52736 0,1.12661 -2.46898,1.00562 -3.18701,-0.15617 z"
     id="path6185" />
  <path
     inkscape:connector-curvature="0"
     style="fill:#1e221e"
     d="m 244.33358,151.21322 c -6.8062,-0.15289 -12.375,-0.4833 -12.375,-0.73424 0,-0.25095 0.6212,-1.40439 1.3805,-2.5632 1.3726,-2.09487 1.4614,-2.10438 15.525,-1.66217 7.7795,0.24462 14.52925,0.80198 14.9995,1.23859 0.5222,0.48484 0.31375,0.79384 -0.53551,0.79384 -0.76478,0 -2.12355,0.81 -3.01949,1.8 -0.89594,0.99 -2.07246,1.71116 -2.61449,1.60258 -0.54203,-0.10857 -6.55421,-0.3225 -13.36051,-0.4754 z"
     id="path6183" />
  <path
     inkscape:connector-curvature="0"
     style="fill:#1e221e"
     d="m 271.10858,132.08604 c -7.92904,-0.54804 -7.84355,-0.56315 4.05,-0.71615 8.11917,-0.10444 11.70213,0.13314 10.8,0.71615 -1.40781,0.90979 -1.68702,0.90979 -14.85,0 z"
     id="path6175" />
  <path
     inkscape:connector-curvature="0"
     style="fill:#ffffff"
     d="m 94.989284,27.02137 c -0.4519,-2.34606 -3.4307,-2.60771 -3.4307,-0.30132 0,1.28798 0.578,1.86598 1.866,1.86598 1.288,0 1.7726,-0.48466 1.5647,-1.56466 z"
     id="path6201" />
</svg>
